<svg xml:space="preserve" style="max-height: 500px" viewBox="0 162.383208 655.900264 320.77617599999996" y="0px" x="0px" xmlns:xlink="http://www.w3.org/1999/xlink" xmlns="http://www.w3.org/2000/svg" id="layer" version="1.1" width="655.900264" height="320.77617599999996">
<path d="M174.5,286c3.9,0,7.6,1.2,11,3.4l12.5,7.8l11.5-3.4l16.9-20.3l-35.9-35.9c-14.2-14.2-34.5-22-56.7-22h-0.5&#10;&#9;c-10.3-7.5-25.3-12-40.8-12c-6.5,0-13,0.8-19.3,2.2c2.7,7.7,8.2,16.6,12.4,22.9c-35,20.2-59.1,61.7-59.1,109.4c0,9.5,1,14.4,1,14.4&#10;&#9;s11.5-11.7,26.7-11.7c0,23.5-14.9,46.2-14.9,46.2c37.9,0,105.6,17.8,129.8,34.2c0-11.2-24.2-39.4-47.4-54.5c0,0,68.2,29.6,78.5,81.4&#10;&#9;c0,0,5.1-10.7,5.1-28.3c0-78.2-101-76-101.7-141c-0.2-17.4,6.9-28.1,6.9-28.1c-1.6,6.7-2.4,13.5-2.5,20.3&#10;&#9;c0,50.1,52.6,52.3,85.6,83.8l7.1-38.4l-13.7,4.4l-10-2.9c-11-3.2-17.4-9.5-17.4-17.6S165.7,286,174.5,286z M132.9,246&#10;&#9;c0,0,8.3-1,14.2-1c12.2,0,23.9,4.2,31,10.5l-7.3,8.8C164.5,257,143.9,247,132.9,246z M348.7,350.5l-10.7-15.2&#10;&#9;c14.9-5.9,23.9-17.9,23.9-32.5c0-19.3-15.8-32.5-38.8-32.5h-52.4l1.7,2.7c3.8,5.8,5.8,11.1,5.8,16.1v69.6c0,4.9-2,10.3-5.8,16.1&#10;&#9;l-1.7,2.7h30v-87h21c10.3,0,17.2,5.8,17.2,14.2c0,9.9-8.3,16.2-31.7,22l25.7,39.6c6.4,9.9,16.1,15.2,27.6,15.2&#10;&#9;c10.6,0,14.9-4.4,14.9-4.4S364.8,373.5,348.7,350.5z M518.7,377.4l-1.7-2.2c-3.8-4.5-5.4-9.1-5.8-13.1L503,289&#10;&#9;c-0.5-4.9,1.2-10.2,4.4-16.1l1.5-2.7h-31.6l-27.6,60.8l-27.6-60.8h-31.6l1.5,2.7c3.2,5.9,4.9,11.1,4.4,16.1l-8.2,73.1&#10;&#9;c-0.4,4-2,8.6-5.8,13.1l-1.7,2.2h29l6.4-69.4l33.4,73.4l33.4-73.4l6.5,69.4L518.7,377.4z M608.1,320.5c7.8-4.5,12.1-11.8,12.1-21.3&#10;&#9;c0-17.2-14.2-28.9-35.2-28.9h-52.5l1.7,2.7c3.8,5.6,5.8,11.1,5.8,16.1v69.6c0,4.9-2,10.4-5.8,16.1l-1.7,2.7h56.9&#10;&#9;c21.6,0,37-13.1,37-31.7C626.3,333.6,619.8,324.9,608.1,320.5z M582.6,289.5c9.3,0,15.7,5.1,15.7,12.5c0,7.4-6.4,12.5-15.7,12.5&#10;&#9;h-20.1v-24.9H582.6z M587.3,358.2h-24.8V332h24.8c9.6,0,15.9,5.1,15.9,13.1C603.2,353.2,596.9,358.2,587.3,358.2L587.3,358.2z" fill="#778899"/>
</svg>