<svg xmlns="http://www.w3.org/2000/svg" version="1.1" xmlns:xlink="http://www.w3.org/1999/xlink" xmlns:svgjs="http://svgjs.dev/svgjs" width="1500" height="939" viewBox="0 0 1500 939"><g transform="matrix(1,0,0,1,-0.9090909090909918,-1.5145161290323017)"><svg viewBox="0 0 396 248" data-background-color="#ede1d1" preserveAspectRatio="xMidYMid meet" height="939" width="1500" xmlns="http://www.w3.org/2000/svg" xmlns:xlink="http://www.w3.org/1999/xlink"><g id="tight-bounds" transform="matrix(1,0,0,1,0.2400000000000091,0.4000000000000057)"><svg viewBox="0 0 395.52 247.2" height="247.2" width="395.52"><g><svg></svg></g><g><svg viewBox="0 0 395.52 247.2" height="247.2" width="395.52"><g transform="matrix(1,0,0,1,75.54432,109.33473460322607)"><svg viewBox="0 0 244.43135999999998 28.53053079354786" height="28.53053079354786" width="244.43135999999998"><g><svg viewBox="0 0 244.43135999999998 28.53053079354786" height="28.53053079354786" width="244.43135999999998"><g><svg viewBox="0 0 244.43135999999998 28.53053079354786" height="28.53053079354786" width="244.43135999999998"><g><svg viewBox="0 0 244.43135999999998 28.53053079354786" height="28.53053079354786" width="244.43135999999998"><g id="textblocktransform"><svg viewBox="0 0 244.43135999999998 28.53053079354786" height="28.53053079354786" width="244.43135999999998" id="textblock"><g><svg viewBox="0 0 244.43135999999998 28.53053079354786" height="28.53053079354786" width="244.43135999999998"><g transform="matrix(1,0,0,1,0,0)"><svg width="244.43135999999998" viewBox="1.25 -34.35 301.17 35.160000000000004" height="28.53053079354786" data-palette-color="#6a704c"><path d="M27-23.46L27-23.46Q27-19.8 25.27-17.38 23.54-14.97 20.61-13.76 17.68-12.55 14.09-12.55L14.09-12.55 13.94-12.55Q12.96-12.55 11.78-12.63 10.6-12.72 10.4-12.74L10.4-12.74 10.4-3.44Q10.4-3.08 10.66-2.73 10.91-2.39 11.45-2.34L11.45-2.34 14.75-2.15 14.75 0 1.61 0 1.61-2.15 4.25-2.34Q4.79-2.39 5.07-2.73 5.35-3.08 5.35-3.44L5.35-3.44 5.35-30.1Q5.35-30.47 5.07-30.82 4.79-31.18 4.25-31.2L4.25-31.2 1.25-31.4 1.25-33.54 13.21-33.54Q20.29-33.54 23.65-31.27 27-29 27-23.46ZM21.8-23.39L21.8-23.39Q21.8-27.03 19.76-29.06 17.72-31.1 12.94-31.1L12.94-31.1Q12.26-31.1 11.33-31.08 10.4-31.05 10.4-31.05L10.4-31.05 10.4-15.31Q10.52-15.31 11.51-15.17 12.5-15.04 13.21-15.04L13.21-15.04 13.35-15.04Q17.24-15.04 19.52-17.07 21.8-19.09 21.8-23.39ZM63.55-16.75L63.55-16.75Q63.55-13.11 62.39-9.94 61.23-6.76 59.08-4.35 56.93-1.93 53.93-0.56 50.93 0.81 47.26 0.81L47.26 0.81Q42.36 0.81 38.68-1.5 35.01-3.81 32.96-7.79 30.91-11.77 30.91-16.8L30.91-16.8Q30.91-20.46 32.04-23.63 33.18-26.81 35.32-29.22 37.47-31.64 40.48-33 43.48-34.35 47.21-34.35L47.21-34.35Q50.93-34.35 53.93-32.98 56.93-31.62 59.08-29.19 61.23-26.76 62.39-23.57 63.55-20.39 63.55-16.75ZM57.76-16.7L57.76-16.7Q57.76-20.78 56.59-24.13 55.42-27.49 53.09-29.49 50.75-31.49 47.26-31.49L47.26-31.49Q43.65-31.49 41.29-29.48 38.94-27.47 37.79-24.12 36.64-20.78 36.64-16.8L36.64-16.8Q36.64-12.79 37.79-9.41 38.94-6.03 41.27-3.99 43.6-1.95 47.14-1.95L47.14-1.95Q50.75-1.95 53.1-3.99 55.44-6.03 56.6-9.39 57.76-12.74 57.76-16.7ZM80.34-2.15L80.34 0 67.16 0 67.16-2.15 70.14-2.34Q70.67-2.39 70.93-2.73 71.19-3.08 71.19-3.44L71.19-3.44 71.19-30.1Q71.19-30.47 70.93-30.8 70.67-31.13 70.14-31.15L70.14-31.15 67.16-31.35 67.16-33.54 80.34-33.54 80.34-31.35 77.29-31.15Q76.78-31.13 76.51-30.8 76.24-30.47 76.24-30.1L76.24-30.1 76.24-3.44Q76.24-3.08 76.51-2.73 76.78-2.39 77.29-2.34L77.29-2.34 80.34-2.15ZM116.59-33.54L116.59-31.4 113.81-31.2Q113.27-31.18 113.02-30.82 112.76-30.47 112.76-30.1L112.76-30.1 112.76 0 108.85 0 90.25-28 90.25-3.44Q90.25-3.08 90.51-2.73 90.76-2.39 91.3-2.34L91.3-2.34 94.16-2.15 94.16 0 83.34 0 83.34-2.15 86.2-2.34Q86.74-2.39 87.02-2.73 87.3-3.08 87.3-3.44L87.3-3.44 87.3-30.1Q87.3-30.47 87.02-30.82 86.74-31.18 86.2-31.2L86.2-31.2 83.24-31.4 83.24-33.54 93.16-33.54 93.16-32.3 109.81-7.15 109.81-30.1Q109.81-30.47 109.54-30.82 109.27-31.18 108.76-31.2L108.76-31.2 105.9-31.4 105.9-33.54 116.59-33.54ZM147.21-33.54L147.21-25.56 144.25-25.56 143.54-30.25Q143.37-31.1 142.71-31.1L142.71-31.1 135.56-31.1 135.56-3.44Q135.56-3.08 135.82-2.73 136.07-2.39 136.61-2.34L136.61-2.34 139.81-2.15 139.81 0 126.26 0 126.26-2.15 129.46-2.34Q129.99-2.39 130.25-2.73 130.51-3.08 130.51-3.44L130.51-3.44 130.51-31.1 123.31-31.1Q122.57-31.1 122.45-30.25L122.45-30.25 121.77-25.56 118.86-25.56 118.86-33.54 147.21-33.54ZM198.81-9.91L198.81-9.91Q198.81-6.88 197.59-4.94 196.37-3 194.43-1.92 192.49-0.83 190.29-0.42 188.1 0 186.12 0L186.12 0 172.13 0 172.13-2.15 174.77-2.34Q175.3-2.39 175.56-2.73 175.82-3.08 175.82-3.44L175.82-3.44 175.82-30.1Q175.82-30.47 175.56-30.82 175.3-31.18 174.77-31.2L174.77-31.2 172.13-31.4 172.13-33.54 185.51-33.54Q191.49-33.54 194.13-31.4 196.76-29.25 196.76-25.49L196.76-25.49Q196.76-23 195.58-21.44 194.39-19.87 192.72-19.03 191.05-18.19 189.56-17.8L189.56-17.8Q191.81-17.8 193.93-17.05 196.05-16.31 197.43-14.59 198.81-12.87 198.81-9.91ZM191.37-25.15L191.37-25.15Q191.37-28.08 189.45-29.66 187.53-31.25 183.68-31.25L183.68-31.25Q182.9-31.25 181.99-31.18 181.09-31.1 180.82-31.1L180.82-31.1 180.82-18.46Q180.82-18.46 181.52-18.43 182.21-18.41 182.63-18.41L182.63-18.41Q187.51-18.41 189.44-20.17 191.37-21.92 191.37-25.15ZM193.37-9.5L193.37-9.5Q193.37-12.92 191.33-14.5 189.29-16.09 185.31-16.09L185.31-16.09Q184.51-16.09 183.51-16.02 182.5-15.94 181.74-15.87 180.97-15.8 180.82-15.8L180.82-15.8 180.82-2.59Q180.82-2.59 181.39-2.55 181.97-2.51 182.71-2.48 183.46-2.44 183.92-2.44L183.92-2.44Q189.17-2.44 191.27-4.2 193.37-5.96 193.37-9.5ZM234.21-2.15L234.21 0 222.32 0 222.32-2.15 225.2-2.39Q225.4-2.39 225.57-2.65 225.74-2.91 225.74-3.13L225.74-3.13Q225.74-3.22 225.71-3.25L225.71-3.25 222.27-12.4 210.72-12.4 207.4-3.39Q207.38-3.34 207.38-3.25L207.38-3.25Q207.38-2.95 207.64-2.67 207.89-2.39 208.11-2.39L208.11-2.39 211.07-2.15 211.07 0 201.01 0 201.01-2.15 203.91-2.76 215.56-34.35 219.32-34.35 230.92-3.49Q231.11-2.98 231.26-2.81 231.4-2.64 231.96-2.54L231.96-2.54 234.21-2.15ZM211.6-14.79L221.37-14.79 216.46-27.91 211.6-14.79ZM269.05-33.54L269.05-31.4 266.26-31.2Q265.73-31.18 265.47-30.82 265.21-30.47 265.21-30.1L265.21-30.1 265.21 0 261.31 0 242.7-28 242.7-3.44Q242.7-3.08 242.96-2.73 243.22-2.39 243.75-2.34L243.75-2.34 246.61-2.15 246.61 0 235.8 0 235.8-2.15 238.65-2.34Q239.19-2.39 239.47-2.73 239.75-3.08 239.75-3.44L239.75-3.44 239.75-30.1Q239.75-30.47 239.47-30.82 239.19-31.18 238.65-31.2L238.65-31.2 235.7-31.4 235.7-33.54 245.61-33.54 245.61-32.3 262.26-7.15 262.26-30.1Q262.26-30.47 261.99-30.82 261.72-31.18 261.21-31.2L261.21-31.2 258.35-31.4 258.35-33.54 269.05-33.54ZM302.42-2.15L302.42 0 293.65 0 293.65-1.54 284.35-14.89 280.86-14.89 280.86-3.44Q280.86-3.08 281.14-2.73 281.42-2.39 281.96-2.34L281.96-2.34 284.82-2.15 284.82 0 272.12 0 272.12-2.15 274.76-2.34Q275.29-2.39 275.55-2.73 275.81-3.08 275.81-3.44L275.81-3.44 275.81-30.1Q275.81-30.47 275.55-30.82 275.29-31.18 274.76-31.2L274.76-31.2 272.12-31.4 272.12-33.54 284.82-33.54 284.82-31.4 281.96-31.2Q281.42-31.18 281.14-30.82 280.86-30.47 280.86-30.1L280.86-30.1 280.86-16.99 282.67-16.99 293.56-30.3Q293.65-30.4 293.65-30.57L293.65-30.57Q293.65-31.1 293.17-31.15L293.17-31.15 290.6-31.4 290.6-33.54 301.2-33.54 301.2-31.4Q301.2-31.4 300.4-31.31 299.61-31.23 298.78-31.13 297.95-31.03 297.8-31.01L297.8-31.01 287.6-18.8 298.81-2.39 302.42-2.15Z" opacity="1" transform="matrix(1,0,0,1,0,0)" fill="#6a704c" class="wordmark-text-0" data-fill-palette-color="primary" id="text-0"></path></svg></g></svg></g></svg></g></svg></g></svg></g></svg></g></svg></g><path d="M174.585 103.335L174.585 38.936 5.258 38.936 5.258 208.264 174.585 208.264 174.585 143.865 172.012 143.865 172.012 205.691 7.831 205.691 7.831 41.509 172.012 41.509 172.012 103.335Z" fill="#6a704c" stroke="transparent" data-fill-palette-color="tertiary"></path></svg></g><defs></defs></svg><rect width="395.52" height="247.2" fill="none" stroke="none" visibility="hidden"></rect></g></svg></g></svg>